<?xml version="1.0" encoding="UTF-8" standalone="no"?>
<!-- Created with Inkscape (http://www.inkscape.org/) -->

<svg
   width="154mm"
   height="154mm"
   viewBox="0 0 154 154"
   version="1.1"
   id="svg998"
   inkscape:version="1.1.2 (0a00cf5339, 2022-02-04)"
   sodipodi:docname="pompom-placeholder.svg"
   xmlns:inkscape="http://www.inkscape.org/namespaces/inkscape"
   xmlns:sodipodi="http://sodipodi.sourceforge.net/DTD/sodipodi-0.dtd"
   xmlns="http://www.w3.org/2000/svg"
   xmlns:svg="http://www.w3.org/2000/svg">
  <sodipodi:namedview
     id="namedview1000"
     pagecolor="#ffffff"
     bordercolor="#666666"
     borderopacity="1.0"
     inkscape:pageshadow="2"
     inkscape:pageopacity="0.0"
     inkscape:pagecheckerboard="0"
     inkscape:document-units="mm"
     showgrid="false"
     inkscape:zoom="0.70710678"
     inkscape:cx="1057.1246"
     inkscape:cy="83.4386"
     inkscape:window-width="1920"
     inkscape:window-height="1011"
     inkscape:window-x="1920"
     inkscape:window-y="32"
     inkscape:window-maximized="1"
     inkscape:current-layer="layer1"
     height="296mm" />
  <defs
     id="defs995" />
  <g
     inkscape:label="Layer 1"
     inkscape:groupmode="layer"
     id="layer1">
    <path
       id="rect28503-7"
       style="color:#000000;fill:#000000;fill-rule:evenodd;stroke-width:2.25077;-inkscape-stroke:none;paint-order:markers fill stroke"
       d="m 71.739093,3.4360272 -0.22328,0.871184 c -0.800236,3.132377 -1.360246,4.340659 -1.810966,5.662043 -0.34513,1.0117898 -0.5906,2.0622918 -0.74674,3.8231838 -1.00053,-1.797264 -2.18748,-3.477623 -3.60216,-5.0107138 l -0.69787,-0.760671 -0.81768,0.633885 -12.94667,10.0400418 -0.0966,-0.105786 C 44.250668,12.467589 43.824844,16.935371 26.44258,24.243089 l 2.408822,2.626313 c -6.634354,4.994261 -5.808771,4.746789 -10.176124,3.480054 l -1.402726,3.362586 -1.265475,0.904901 0.742058,0.34313 -6.8402915,16.388345 0.7304375,0.518736 c 3.584899,2.551723 6.940096,4.62061 10.149382,6.380872 -4.472735,-0.587474 -9.06519,-1.351116 -14.5506265,-2.890352 l 0.787435,1.037516 -2.215741,0.04884 v 0.04772 0.804876 l 0.03491,0.009 0.928167,21.922482 0.887464,0.15823 c 0.06899,0.0135 0.131783,0.0225 0.200048,0.0338 -1.287518,0.39852 -2.345039,0.9106 -2.898488,1.96218 l -0.158184,0.29893 2.272735,22.894832 1.564395,-1.06892 c 0.0036,-0.002 0.0081,-0.005 0.0117,-0.007 l 7.5951865,20.8966 1.221269,-0.95377 c 4.461638,-3.49383 8.407895,-5.95705 12.306952,-8.20814 -2.283993,2.85592 -4.584755,6.05902 -6.910095,9.75625 l -0.474553,0.76069 17.201369,17.17576 0.703681,-1.38526 c 0.818021,-1.61559 1.630392,-3.09252 2.444879,-4.4943 l 0.02251,0.24774 4.039506,-0.0302 0.360574,1.11195 c 0.04794,0.14698 0.108941,0.37374 0.286121,0.65484 l 0.18028,0.28612 20.96057,9.48174 -0.13955,-1.89007 c -0.83576,-11.16263 1.34481,-23.55757 3.794076,-36.09856 0.0736,6.39721 -0.007,12.57901 -0.747856,16.87222 l -0.27219,1.58648 0.48387,-0.0873 c -0.15755,5.66981 0.177136,11.93298 1.423636,19.33334 l 0.15013,0.88863 24.26962,1.36667 -0.39546,-1.49926 c -0.84987,-3.20019 -1.41024,-6.05469 -1.85981,-8.79667 l 2.7531,0.37684 0.56643,0.87817 c 0.66794,1.03848 1.32935,2.08711 2.09246,3.19159 l 0.509437,0.73859 22.56102,-9.04675 -0.99795,-1.19102 c -0.34457,-0.41128 -0.65574,-0.81692 -1.01192,-1.25735 l 7.15784,-5.13516 0.2199,0.20235 c 1.26588,1.16225 2.43211,2.23386 3.9732,3.65334 l 0.91887,0.84442 11.79054,-15.74629 -3.76851,-2.87059 6.00983,-18.551742 -0.77346,-0.46175 c -1.5145,-0.90047 -2.97291,-1.71232 -4.41288,-2.48443 l -0.0617,-0.44779 -1.0119,0.0302 -0.18366,0.007 -0.31637,-2.31112 c 3.11178,0.25895 6.37302,0.64676 10.08888,1.36667 l 1.52137,0.29544 -3.01597,-24.12193 -0.89677,-0.0873 c -1.42186,-0.14068 -2.74387,-0.22036 -4.05695,-0.30357 l 0.95376,1.01539 -1.09914,0.0547 -1.60163,-16.16735 -0.33847,0.227981 -16.29527,-20.059152 -0.884,0.847911 -2.02963,1.961007 -5.18402,-12.695435 -0.98982,0.30705 c -5.19996,1.619633 -9.56363,4.863446 -13.41888,9.024651 1.72731,-2.955331 3.21185,-5.624117 4.27444,-7.877793 0.7705,-1.63424 1.3305,-3.056751 1.62139,-4.298885 0.29091,-1.242156 0.37513,-2.379606 -0.24192,-3.357927 l -0.18028,-0.28614 -15.909147,-7.1962138 4.02321,-5.434085 z m 1.67953,2.294843 c 4.94114,0.142023 9.69189,0.243016 14.5297,0.390801 l 4.32099,0.119741 -1.02008,1.375965 -4.85367,-0.379188 0.12784,1.974985 v 0.0045 c 0.47397,6.6951018 -0.41182,13.6743638 -1.66676,20.4592498 h -10.14937 c -0.0569,-0.578111 -0.10713,-1.147669 -0.18951,-1.744687 v -0.0068 c -0.0135,-0.09476 -0.0257,-0.17511 -0.0349,-0.246594 v -0.0045 l -0.005,-0.009 c -0.19852,-1.395772 -0.44412,-2.793051 -0.75138,-4.180247 -0.1526,-0.689344 -0.31992,-1.369752 -0.50129,-2.044759 -0.009,-0.02971 -0.0234,-0.09363 -0.0441,-0.167457 l -0.009,-0.02026 c -0.18231,-0.667174 -0.37842,-1.328789 -0.59319,-1.986599 -0.41646,-1.27522 -0.91266,-2.520303 -1.46437,-3.740581 0.13032,-2.615668 0.33723,-3.706009 0.72115,-4.831598 0.33975,-0.9960788 0.92835,-2.6365318 1.58299,-4.9630428 z m 16.50815,5.0595558 16.880347,7.635879 c 0.0659,0.193792 0.16116,0.585539 -0.0396,1.442273 -0.22877,0.976857 -0.7356,2.295562 -1.46901,3.851071 -1.46683,3.111063 -3.83068,7.180076 -6.628627,11.830081 -4.20343,6.985902 -9.20948,15.384907 -13.85274,23.957918 2.14562,-8.604162 4.04948,-17.299323 6.78912,-25.544397 -0.007,0.01576 -0.0157,0.03151 -0.0232,0.04772 l 0.0441,-0.11389 c -0.007,0.02251 -0.0135,0.04434 -0.0202,0.06617 0.32325,-0.69155 0.73721,-1.307001 0.55247,-2.339025 -0.0945,-0.528031 -0.64647,-1.149784 -1.20848,-1.296872 -0.51237,-0.134146 -0.9697,-0.0745 -1.49346,0.05222 h 0.13032 l -0.28146,0.03489 c 0.0522,-0.01351 0.10039,-0.02273 0.15125,-0.03489 h -1.24569 c 1.25756,-6.750944 1.97357,-13.329074 1.71444,-19.589236 z m -25.621166,0.352426 c 4.47501,5.32105 6.43016,12.500428 7.161326,20.674445 -0.38477,1.11303 -0.741626,2.234229 -1.042176,3.367223 -2.22651,7.7732 -2.13693,15.816672 -1.48065,23.777631 -6.44531,-17.738921 -10.51603,-26.690175 -13.07811,-30.042183 -1.48686,-1.94532 -2.70835,-2.685283 -3.65334,-3.393984 -0.76384,-0.572867 -1.54963,-1.626341 -2.46232,-3.098548 z m -17.11298,6.818196 c 0.38425,0.42211 0.75351,0.827677 1.11661,1.230588 -0.78703,0.609959 -1.57395,1.222259 -2.361154,1.833073 l -0.721125,0.558305 0.39546,0.81766 c 1.294419,2.691428 3.171409,5.161764 5.796979,6.836811 -0.0113,-0.009 -0.0225,-0.02026 -0.0338,-0.03129 l 0.1535,0.113889 c -0.0414,-0.02588 -0.0786,-0.05627 -0.11974,-0.0826 3.24255,2.902371 4.91026,7.323427 6.93451,11.552088 2.96171,6.722584 5.37663,13.724849 7.89526,20.679106 -6.76399,-10.392109 -12.7598,-21.273962 -19.21936,-32.086965 l -0.0135,-0.02026 -0.0135,-0.01801 C 45.149389,26.528627 43.26565,23.172163 40.119408,20.934108 Z M 37.61784,23.34978 c 0.256925,0.04074 0.733886,0.201669 1.4725,0.91073 0.824525,0.791619 1.819029,2.040797 2.910136,3.639386 2.182236,3.197199 4.784081,7.780424 7.732411,13.030441 4.8583,8.650978 10.87648,18.882606 17.52238,28.204451 C 52.398927,57.415172 38.701857,42.495974 22.54381,34.16447 Z m 78.59659,2.748463 6.96708,17.078072 c -1.33694,0.719346 -2.48168,1.258699 -3.29162,1.388749 -0.81343,0.130544 -1.87154,0.264015 -3.03807,0.518758 -1.85893,-2.19914 -3.71935,-4.394678 -5.57831,-6.593728 l -1.11195,-1.318975 -0.75721,1.551615 c -0.26669,0.546555 -0.53235,1.093425 -0.79904,1.63998 -4.57112,9.154904 -11.914317,16.67802 -19.453167,23.742744 -0.99229,0.91557 -1.99895,1.81676 -3.01945,2.70892 -0.83173,0.70906 -1.69308,1.4411 -2.57167,2.19714 0.018,-0.0342 0.0615,-0.0709 0.079,-0.10466 l 0.009,-0.0158 0.009,-0.018 c 4.83736,-10.086755 10.78629,-19.607342 16.586087,-29.269907 4.57584,-6.331422 9.69713,-11.229485 15.96963,-13.5038 z m -41.466347,7.020586 h 12.41744 c -2.30326,6.73206 -4.65964,17.110461 -7.02988,26.445831 -1.25309,4.935428 -2.5065,9.464858 -3.71035,12.691948 -0.59409,1.59261 -1.18146,2.85194 -1.70048,3.66149 -2.13599,-14.46583 -4.787006,-28.697236 0.0234,-42.799269 z m -55.989059,2.874056 c 11.489607,5.571494 21.124668,14.17228 30.745883,22.780854 -1.07755,-0.568928 -2.04739,-1.313641 -3.1881,-1.771448 l -0.0225,-0.009 c -0.0203,-0.01125 -0.09003,-0.05267 -0.259357,-0.123343 l -0.009,-0.0045 -0.009,-0.0045 c -0.355577,-0.141798 -0.66202,-0.221476 -0.893264,-0.303584 -0.135047,-0.04749 -0.271646,-0.09791 -0.412904,-0.1454 -0.450155,-0.150801 -0.916987,-0.299487 -1.406215,-0.43037 l -0.009,-0.0068 c -0.467036,-0.128969 -0.942309,-0.246392 -1.428318,-0.351278 l -0.0045,-0.0045 h -0.0045 c -1.694944,-0.347384 -3.444289,-0.479707 -5.179365,-0.374528 0.0709,-0.0045 0.02723,-0.009 -0.131445,0 l -1.067744,0.05807 v 0.06505 c -0.139998,0.01801 -0.282922,0.02791 -0.422199,0.04884 -0.298385,0.04457 -0.600934,0.09408 -0.906071,0.158229 -0.470457,0.09543 -0.939585,0.210222 -1.406215,0.346619 l -0.0045,0.0045 h -0.009 c -0.05649,0.01801 -0.08665,0.02836 -0.09656,0.03129 h -0.009 l -0.0045,0.0068 c -1.226378,0.368586 -2.422663,0.874852 -3.550998,1.542296 l -0.774626,0.45711 0.009,0.02678 c -0.211347,-0.04637 -0.407277,-0.08778 -0.637373,-0.131445 -0.337121,-0.06392 -0.665644,-0.135047 -1.091017,-0.09183 0.03826,0.0045 0.07675,0.009 0.115239,0.0135 l -0.338448,0.0135 c 0.08013,-0.01575 0.149901,-0.01801 0.223276,-0.02566 -0.799992,-0.08913 -1.600659,-0.181413 -2.399503,-0.277993 -3.597454,-1.849865 -7.400471,-4.150717 -11.473005,-6.993825 z m 106.607986,0.444325 13.13974,16.168512 c -3.82035,2.348614 -7.90107,4.219613 -11.98824,6.076118 0.22946,-0.340677 0.51342,-0.684393 0.73393,-1.015391 l 0.47104,-0.703704 -0.55016,-0.646692 c -2.37866,-2.81279 -4.75642,-5.62594 -7.13456,-8.439586 2.36966,-0.438788 4.64496,-1.24776 6.62512,-2.615847 l 0.64206,-0.444303 -0.18952,-0.756034 c -0.5475,-2.184239 -1.7308,-4.387881 -2.44022,-6.334348 l -0.009,-0.01801 -0.009,-0.02251 c -0.0551,-0.135272 -0.11232,-0.269395 -0.16746,-0.404757 z m -14.33544,6.111027 12.31742,14.572715 c -4.75773,6.857496 -15.0856,12.505186 -24.846547,15.785836 -5.02899,1.69024 -9.87754,2.78104 -13.61895,3.1823 -1.87073,0.20077 -3.46736,0.22441 -4.62921,0.0885 -0.42659,-0.05 -0.41459,-0.13977 -0.70253,-0.22796 12.7684,-9.83065 25.637217,-22.207338 31.479817,-33.401284 z m 29.28617,14.202845 1.82842,18.442406 c -0.11592,0.13324 -0.28391,0.3233 -0.86536,0.52688 -0.69902,0.24475 -1.73545,0.44721 -3.02411,0.57575 -2.57734,0.25711 -6.15699,0.25087 -10.37037,0.12447 -6.93278,-0.2082 -16.05568,-0.59033 -25.07101,-0.69902 3.28381,-1.22911 6.61824,-2.35393 9.71901,-3.94297 l 0.009,-0.007 0.009,-0.004 c 3.50981,-1.88079 6.95858,-4.1147 9.99701,-6.82634 6.41371,-2.17185 12.42106,-4.808828 17.7678,-8.190704 z M 7.1220275,57.837417 c 8.5149055,2.229773 15.1493945,2.815064 22.3493225,3.754561 1.417783,4.37947 2.834937,8.75996 4.251213,13.13974 l 0.259357,0.79558 -6.532079,-0.0441 h -0.0045 -0.009 c -2.662506,-0.23138 -5.213846,-1.07774 -7.411388,-2.55074 l -0.03961,-0.0257 -0.04412,-0.0225 c -2.134453,-1.1734 -4.460851,-1.3565 -6.52394,-1.58299 l -0.958406,-0.10579 -0.25007,0.92817 c -0.48241,1.7821 -0.96753,3.5637 -1.450411,5.3457 -0.333227,0.0407 -0.666003,0.0842 -1.0072635,0.12784 -0.607279,-0.0914 -1.205005,-0.18906 -1.806321,-0.28611 z M 37.538747,58.6551 c 5.282473,-0.0817 10.03187,2.354061 15.18335,5.785348 4.76993,3.17714 10.01384,7.13065 16.04987,10.49249 -0.50397,0.17939 -1.29331,0.30651 -2.30762,0.32569 -2.067,0.0392 -4.97939,-0.3084 -8.3128,-0.80024 -6.41965,-0.94717 -14.395064,-2.34105 -21.654952,-2.33437 L 32.531522,59.858926 c 1.532731,-0.672148 3.143316,-1.174948 5.007225,-1.203826 z M 145.13187,70.387478 c 0.58178,0.0385 1.1684,0.0826 1.76213,0.13257 l 2.41814,19.32522 c -2.88398,-0.50547 -5.5813,-0.87208 -8.08833,-1.09565 -0.3655,-2.66849 -0.73728,-5.33248 -1.09916,-7.99994 l -0.12334,-0.90607 -0.90956,-0.0662 c -0.30838,-0.0225 -0.6182,-0.0331 -0.92818,-0.0419 -0.002,2e-4 -0.005,0.001 -0.009,0.001 -0.005,-1.3e-4 -0.009,1.2e-4 -0.0135,0 -0.44687,0.0342 -0.91127,0.0675 -1.30849,0.10691 h -0.0349 l -0.0396,0.005 c -0.53055,0.018 -1.06104,0.029 -1.59114,0.0396 -0.004,5.6e-4 -0.009,5.6e-4 -0.0135,10e-4 -0.002,5e-5 -0.005,-4e-5 -0.007,0 -1.68463,0.22305 -3.34289,0.69173 -4.90486,1.49229 0.0135,-0.005 0.0257,-0.007 0.0383,-0.0113 l -0.16161,0.0698 c 0.0405,-0.0203 0.0826,-0.0371 0.12334,-0.0583 -4.01945,1.34088 -8.65912,0.58297 -13.17579,0.2524 l -0.0396,-0.004 c -5.30878,-0.59074 -10.61171,-1.67093 -15.91845,-2.58559 1.42625,-0.0158 2.85756,-0.059 4.21167,0.009 h 0.0232 0.0225 c 9.85676,0.10578 19.77848,1.03123 29.78166,0.83512 0.002,-3.1e-4 0.005,-5.6e-4 0.007,-10e-4 0.005,-9e-5 0.009,9e-5 0.0135,0 0.98746,-0.12964 1.98372,-0.17826 2.97411,-0.15125 0.005,-3.4e-4 0.009,-5.6e-4 0.0135,-0.001 0.002,9e-5 0.007,-9e-5 0.009,0 0.99946,-0.0763 2.0571,-0.16724 3.14044,-0.42223 1.57516,-0.37083 3.19823,-1.14978 4.20235,-2.77403 l 0.20234,-0.32566 -0.0396,-0.37802 c -0.17984,-1.81554 -0.35738,-3.63182 -0.53737,-5.44689 z m -130.158802,4.70016 c 1.652764,0.26554 2.926319,0.56805 3.724308,1.02356 0.99214,0.56629 2.064183,1.36862 4.207008,1.99125 4.277007,1.24279 12.767731,1.91778 35.897343,0.67344 1.30342,0.1706 2.62118,0.28098 3.93482,0.40826 -8.59856,3.33592 -17.331396,7.50743 -25.756104,10.66115 -9.220333,3.45158 -17.975702,5.33986 -25.743304,3.30557 1.320731,-4.87614 2.641086,-9.75233 3.960421,-14.6297 l 0.426859,-1.58302 -1.187539,0.12447 z m 56.639235,3.53821 c 0.0315,0.30118 0.15711,0.38853 0.0966,0.83627 -0.14112,1.04182 -0.56771,2.4147 -1.257316,3.96508 -1.37926,3.10077 -3.79798,6.93008 -6.90195,10.74372 -6.02568,7.403352 -14.66858,14.642442 -23.166999,17.078092 L 34.078518,100.3343 C 47.202207,94.647118 59.104067,85.847898 71.612373,78.625848 Z m -60.647334,2.34834 c -1.2125795,4.47445 -2.4260695,8.94887 -3.6359095,13.42471 l -1.195686,-12.0627 c 0.153952,-0.17938 0.565403,-0.53818 1.61325,-0.84327 0.770682,-0.2244 2.047678,-0.36202 3.2183455,-0.51874 z m 67.391104,0.35592 c 7.26328,1.89706 15.34671,2.39756 22.107407,4.47102 3.73279,1.14479 7.00775,2.78799 9.53872,5.43292 2.39046,2.49806 4.08516,6.0288 4.91069,10.950772 l -11.90917,5.67951 C 95.034093,94.007868 87.929463,87.502828 83.081813,84.183228 c -1.32192,-0.90528 -2.32687,-1.49534 -3.19391,-1.98545 l -0.16048,-0.37799 -0.52223,-0.009 c -0.27511,-0.15373 -0.62254,-0.34684 -0.84908,-0.48036 z m 23.012307,1.26547 c 13.95355,2.27756 23.01092,3.25478 26.73778,2.81358 2.5273,-0.29917 3.82118,-0.99432 4.93162,-1.46786 0.90006,-0.38381 2.21066,-0.5396 3.96973,-0.59434 -0.26938,10.42401 1.19811,8.76571 2.49255,18.244612 -7.09209,1.25624 -14.56427,-0.86268 -22.29232,-4.550122 -1.32022,-3.89062 -3.45872,-7.54999 -6.87521,-10.12494 -2.74063,-2.09853 -5.81123,-3.34784 -8.96415,-4.32099 z m -27.171627,2.76123 h 0.001 c -2.7e-4,0.001 -5.7e-4,0.001 -0.001,0.002 4.0534,13.29099 5.25344,25.078422 11.31133,38.841192 l -12.67334,2.31229 c 0.77107,-5.70265 0.72201,-13.23137 0.57924,-20.6663 0.38578,-1.70505 0.81924,-3.48784 0.80488,-5.39339 v -0.0837 l -0.0135,-0.0885 c -0.32463,-2.008412 -0.56859,-4.057132 -0.89212,-6.123812 0.047,-3.14084 0.20505,-5.86456 0.55831,-7.73707 0.0905,-0.47901 0.2136,-0.70573 0.32452,-1.06077 -2.3e-4,-5.8e-4 2.2e-4,-0.002 0,-0.002 z m -2.54373,0.75022 10e-4,0.001 c -5.4e-4,5.8e-4 -5.6e-4,0.002 -10e-4,0.002 -2.7e-4,0.007 -1.4e-4,0.0158 -0.001,0.0203 l -0.009,-0.002 c 0.005,-0.007 0.007,-0.0112 0.009,-0.018 4e-5,-10e-4 -9e-5,-0.002 0,-0.004 z m 7.63471,0.99912 c 4.73907,8.98043 10.8537,17.992792 15.40784,26.793602 4.52236,8.73948 7.300027,17.19133 5.881887,25.16757 l -18.234217,-2.49721 c 0.0531,-1.74489 0.20595,-3.05637 0.58039,-3.95112 0.38141,-0.91106 0.85079,-2.26864 1.19919,-3.96973 1.53491,-0.27963 3.07066,-0.55841 4.6071,-0.83976 l 1.44227,-0.26404 -0.6281,-1.32363 c -3.02823,-6.40554 -5.1273,-12.96445 -6.81934,-19.77767 -0.78077,-5.07745 -1.98962,-11.760312 -3.43702,-19.338012 z m -31.049446,1.78074 c -5.778631,3.49908 -11.628973,6.82383 -17.856207,9.36774 l -1.19219,0.48853 0.642033,1.11659 c 1.766429,3.063482 3.533938,6.125342 5.301492,9.187472 -6.117622,3.48847 -11.947302,6.5951 -18.792508,11.76843 L 10.027495,103.4468 c 3.690364,-2.24656 7.561848,-4.231582 11.504413,-6.133132 3.021909,-0.2804 6.013163,-0.864 8.885058,-1.68767 6.16948,-1.75013 12.020047,-4.21059 17.821321,-6.73911 z m 21.55373,2.49256 h 0.001 c -5.4e-4,5.8e-4 -5.7e-4,0.002 -0.001,0.002 l -0.001,0.004 c -0.002,0.005 -0.007,0.009 -0.009,0.0135 l -0.93864,1.95286 -0.0268,0.0837 c -1.49663,4.91461 -2.68139,9.884852 -3.90343,14.819312 -0.7249,2.62715 -1.3372,4.97466 -1.80284,6.96706 -0.13663,0.49718 -0.26746,0.98719 -0.40359,1.46438 l -0.005,0.0257 -0.009,0.0232 c -0.20685,0.87485 -0.35432,1.74527 -0.4699,2.61121 -0.002,0.0135 -0.002,0.0158 -0.004,0.0302 -1.17373,6.24992 -0.70017,8.70828 -0.18951,10.50645 0.0515,1.56989 0.0542,3.11277 0.0225,4.64665 -1.71409,0.0925 -3.41323,0.22562 -5.08514,0.40012 l -12.995535,0.0966 c -0.430393,-9.13994 4.562725,-18.20213 11.311325,-27.34259 3.6431,-2.87923 6.95506,-6.1857 9.91791,-9.636452 l 0.009,-0.0135 0.009,-0.009 c 1.65684,-2.04057 3.07613,-4.37039 4.56292,-6.6263 l 0.007,-0.0135 0.005,-0.005 z m 17.504956,0.78277 c 2.66154,2.51846 5.1522,5.23586 7.3544,8.255832 l 0.005,0.004 v 0.005 c 2.76408,3.73878 5.11583,7.61414 7.429987,11.68934 l 0.51875,0.90956 0.94445,-0.44779 c 1.97062,-0.93771 3.94067,-1.87939 5.90866,-2.81823 6.71414,5.8342 13.57884,11.08901 20.78842,14.83209 l -15.06471,10.81001 c -0.22847,-0.041 -0.66803,-0.17781 -1.36784,-0.83047 -0.7895,-0.73611 -1.74822,-1.90487 -2.80428,-3.40211 -2.11212,-2.99452 -4.64138,-7.29894 -7.48233,-12.2744 -4.599747,-8.05568 -10.196747,-17.69654 -16.230167,-26.731952 z m -79.8015855,3.91157 0.374526,0.15125 c 1.909614,0.75601 3.9072445,0.95341 5.8865395,1.27014 -2.002978,1.03116 -3.9671775,2.09447 -5.7993085,3.262542 z m 134.7740625,0.33847 c 0.69507,0.38621 1.384,0.76648 2.09712,1.1829 l -1.35855,4.202342 c -0.0331,-0.13617 -0.0659,-0.28283 -0.0966,-0.40824 v -0.004 c -0.0844,-0.34239 -0.0804,-0.61534 -0.0966,-0.53154 l 0.0349,-0.18502 -0.0268,-0.18614 c -0.18524,-1.356942 -0.36805,-2.714092 -0.55365,-4.070922 z m -71.606243,3.627772 c 0.0479,0.38072 0.15553,0.98285 0.1616,1.19102 -2.12495,11.0172 -4.52749,22.1968 -5.40617,32.90814 0.0815,-7.08802 -0.97913,-12.73377 1.61324,-20.08475 l 0.018,-0.0536 0.0135,-0.0525 c 1.07519,-4.33892 2.34992,-9.21551 3.59984,-13.90855 z m 47.652963,1.32596 c 0.77425,0.33703 1.54653,0.67397 2.33788,0.98399 0.047,0.018 0.10196,0.0389 0.16296,0.0617 1.03909,0.40377 2.09204,0.77915 3.15671,1.12124 0.0288,0.009 0.0677,0.0241 0.11861,0.0407 h 0.004 l 0.005,0.005 c 1.07826,0.34333 2.16626,0.64716 3.26605,0.90955 l 0.009,0.007 h 0.0135 c 0.007,0.002 0.0268,0.009 0.0617,0.018 l 0.0135,0.005 h 0.0135 c 1.11105,0.26198 2.23025,0.47608 3.3591,0.63737 l 0.0302,0.005 0.0135,0.004 0.018,0.007 h 0.018 c 1.14506,0.16093 2.30044,0.2651 3.46029,0.30359 0.57885,0.0203 1.16012,0.0248 1.74003,0.009 h 0.004 c 0.009,-2.2e-4 0.018,2.5e-4 0.0268,0 h 0.005 c 0.58746,-0.0157 1.17601,-0.0477 1.76679,-0.10128 0.59191,-0.0538 1.18425,-0.13077 1.77606,-0.22441 0.56956,-0.0902 1.14074,-0.19761 1.7098,-0.32683 -0.0112,6.1e-4 -0.0202,5.6e-4 -0.0313,0.001 0.0392,-0.007 0.095,-0.018 0.0884,-0.018 v 0.005 c -0.018,0.005 -0.038,0.007 -0.0569,0.0112 0.21855,-0.0112 0.43777,-0.0428 0.6595,-0.12086 0.004,-0.002 0.009,0.002 0.0135,0 0.0203,-0.007 0.041,-0.001 0.0617,-0.009 -0.005,0.002 -0.0135,0.004 -0.018,0.007 l -0.0617,0.0232 -3.70104,11.42532 c -7.40634,-5.19617 -13.60047,-8.13755 -20.24916,-11.67957 l 0.67345,-0.32566 -0.0966,-0.79558 c -0.0795,-0.66155 -0.2492,-1.32042 -0.36987,-1.98194 l -0.002,-0.002 z m 24.04982,3.21021 c 2.9e-4,-1.6e-4 -0.0479,0.0306 -0.0477,0.0302 2.1e-4,-1.4e-4 -0.072,0.0356 -0.13729,0.0664 0.0135,-0.007 0.018,-0.0252 0.0313,-0.0313 0.072,-0.0308 0.15328,-0.0648 0.15351,-0.0651 z m -1.00727,0.2524 h 0.001 c 0.005,-9e-5 0.009,1.1e-4 0.0135,0 l -0.15012,0.0135 -0.0606,-0.005 c 0.0653,0.005 0.131,-0.005 0.19649,-0.009 z m -27.11811,1.48879 c 8.39462,4.5268 17.02694,8.49937 24.47319,14.19004 l 0.47804,0.36987 0.57226,-0.19897 c 0.18524,-0.0641 0.31715,-0.15643 0.43152,-0.25821 l -7.46489,9.96561 c -0.71636,-0.659 -1.40464,-1.28476 -2.04478,-1.87262 1.51553,-1.08753 3.03001,-2.17478 4.54548,-3.26254 l 1.57369,-1.12939 -1.75864,-0.80953 c -8.45309,-3.87851 -15.88026,-9.75413 -23.0344,-15.93124 0.74298,-0.35459 1.48557,-0.70852 2.22853,-1.06308 z m -65.815083,5.20496 h 0.002 c -0.032,0.0491 -0.0682,0.0963 -0.0999,0.1454 0.002,-0.005 -0.007,0.0112 -0.0313,0.0477 l -0.0225,0.0302 v 0.005 c -0.007,0.0112 -0.0158,0.0268 -0.005,0.009 l -0.007,0.004 -0.005,0.009 -0.1535,0.22441 v 0.0268 c -0.61417,0.95692 -1.22006,1.92171 -1.79353,2.91011 -0.630891,1.08733 -1.232298,2.19237 -1.793528,3.31839 -0.561387,1.12639 -1.081383,2.2767 -1.551614,3.44282 -0.470367,1.16649 -0.890856,2.35093 -1.249179,3.56032 -0.179161,0.60465 -0.340294,1.21758 -0.48736,1.83307 -0.14675,0.61471 -0.279658,1.23243 -0.391972,1.85981 l -0.0045,0.0135 -0.0045,0.0257 c -0.0023,0.0157 -0.0023,0.0329 -0.0068,0.0488 -5.85e-4,0.002 -0.0045,0.002 -0.0045,0.004 v 0.009 c -0.104661,0.59583 -0.193566,1.19528 -0.264038,1.79819 -0.07428,0.63539 -0.128294,1.27824 -0.162956,1.92612 -0.04006,0.72171 -0.01575,1.42641 0.0135,2.12268 -0.789931,1.32449 -1.587177,2.78984 -2.38323,4.29076 L 24.287686,125.47675 c 2.640989,-4.12141 5.247856,-7.69577 7.825462,-10.74838 1.579525,-0.8981 3.162133,-1.79096 4.746699,-2.68215 0.492717,0.85396 0.984668,1.70946 1.477159,2.56351 l 0.426859,0.73393 0.82232,-0.20707 c 3.145274,-0.78635 6.045011,-2.10008 8.836212,-3.61381 z m 92.921583,6.63908 0.34194,0.26287 -0.7816,1.04562 c 0.14089,-0.32119 0.24855,-0.64271 0.33381,-0.95841 0.0412,-0.1526 0.0657,-0.20144 0.10578,-0.35008 z m -38.63068,5.88073 c 2e-4,1.8e-4 10e-4,-3.2e-4 10e-4,0 4.8e-4,0.002 5.7e-4,0.002 0.001,0.004 1.62136,2.75285 3.1261,5.52913 4.86997,8.21977 l 0.0232,0.0313 0.0232,0.0349 c 1.4068,1.86735 3.10372,4.28475 5.66672,5.6574 l -9.64924,3.86854 c 0.24943,-0.98651 0.44147,-1.97919 0.57575,-2.97179 0.13842,-1.02333 0.21922,-2.04914 0.24657,-3.07295 0.0275,-1.02363 0.001,-2.04521 -0.0709,-3.06364 -0.1445,-2.03648 -0.47487,-4.0567 -0.9491,-6.04008 -0.21428,-0.8966 -0.46756,-1.7832 -0.73625,-2.66354 -6.1e-4,-0.002 -0.001,-0.002 -0.002,-0.005 z m -22.149267,4.55941 c -0.24014,0.8821 -0.43033,1.73906 -0.79558,2.70309 -0.57028,1.50522 -1.14754,3.17097 -1.00727,5.08165 l -0.005,-0.0349 c 0.0158,0.38175 -0.12829,1.07551 0.0313,1.92031 0.0799,0.4224 0.30689,0.98404 0.83046,1.32364 0.45759,0.29671 0.98427,0.34232 1.50044,0.27797 -0.0443,-0.007 -0.0885,-0.0135 -0.13257,-0.018 l 0.35591,-0.009 c -0.0738,0.0135 -0.149,0.018 -0.22328,0.0279 3.69012,0.50509 7.37792,1.01541 11.06822,1.52019 0.36751,2.17767 0.86783,4.50839 1.47252,6.9636 L 74.284763,147.267 c -1.04456,-6.54777 -1.37995,-12.1875 -1.27479,-17.28976 2.51855,-0.45837 5.03806,-0.91759 7.55679,-1.37596 z m -15.355486,9.24797 c -0.11366,2.50306 -0.11929,4.97254 -0.005,7.40324 l -14.12027,-6.38785 c 4.46022,-0.34819 8.63955,-0.97049 13.24096,-1.00609 z"
       sodipodi:nodetypes="ccsccccccccccccccccccccccccccccccccccccccccscccccccccccccccccscccccccccccccccccccccccccccccsscccccccccccccccccccccccccscccccsscccccssccccccccccssccccccccccccccccccccsscccccscccsccccccccccccscccccccccccccccccccccccccccccccsccccccccccscccccccccccccscsccccsccccccccccccccccccccccccccscccccccccccsccccccccccccccccccccccccccsccccccsscsscccccccssscccccsccssccsccccccssccccccccccccccccccccccccsccccccscccccccccccccccccccccccccccccccccccccccccccccccccccssccccccccccccccccccccccccccccccccccsccccccccccccccccccccccccccccccssccssscccscccccccccccccsccccccccccsssccccsscsccccccccccccccscccccccccscccscccccssccccccccccccccccccccscccccccccc"
       inkscape:export-filename="/Users/ksergi/Desktop/pom pom outline.png"
       inkscape:export-xdpi="96"
       inkscape:export-ydpi="96" />
    <path
       style="fill:#ff0000;stroke-width:2.14542"
       d="M 246.89833,188.26089 C 226.23668,134.18066 217.94809,118.16711 201.61849,100.78027 189.64886,88.035687 187.69776,84.969729 190.14253,82.747006 c 7.13259,-6.484774 51.01348,-39.838541 52.41238,-39.838541 4.31557,0 16.25931,21.892086 21.11875,38.709252 5.84335,20.222213 7.50754,38.595433 4.31537,47.643023 -5.30658,15.04046 -7.59963,34.21749 -7.53358,63.00431 0.0362,15.79245 -0.1868,28.71355 -0.49563,28.71355 -0.30883,0 -6.18651,-14.72297 -13.06149,-32.71771 z"
       id="path1278"
       transform="scale(0.26458333)" />
    <path
       style="fill:#ff0000;stroke-width:2.14542"
       d="m 283.41411,111.91513 c -0.60924,-0.98578 -2.68553,-9.43338 -4.61398,-18.772458 -1.92845,-9.339082 -4.866,-20.235731 -6.52789,-24.214779 -4.01345,-9.609368 -3.81019,-19.230841 0.73287,-34.691044 l 3.75449,-12.776669 22.74859,-0.003 c 32.30285,-0.0042 49.74726,2.023434 46.90207,5.451677 -1.43853,1.733324 -5.27248,2.289175 -10.73544,1.556438 l -8.49777,-1.13979 v 22.654187 c 0,20.545245 -2.7973,50.404398 -5.61848,59.973218 -0.94012,3.18866 -3.81439,3.75449 -19.07185,3.75449 -9.8807,0 -18.46337,-0.80654 -19.07261,-1.7923 z"
       id="path1317"
       transform="scale(0.26458333)" />
    <path
       style="fill:#ff0000;stroke-width:2.14542"
       d="m 320.86068,222.05131 c -0.11798,-3.61357 16.73764,-67.61393 22.48666,-85.38133 2.97695,-9.20028 4.84398,-17.64788 4.14896,-18.77245 -0.69502,-1.12457 -4.20864,-2.04467 -7.80805,-2.04467 -6.33535,0 -6.50786,-0.25698 -5.40117,-8.04534 0.62877,-4.42494 2.39031,-21.331346 3.91454,-37.569801 1.52423,-16.238455 3.37919,-29.271901 4.12215,-28.963214 30.34318,12.607155 62.08852,28.774367 62.08852,31.620335 0,6.050592 -15.70364,35.91672 -45.35447,86.25786 -15.76445,26.76487 -30.79214,52.34904 -33.39487,56.85372 -2.60273,4.50467 -4.76375,7.22487 -4.80227,6.04489 z"
       id="path1356"
       transform="scale(0.26458333)" />
    <path
       style="fill:#ff0000;stroke-width:2.14542"
       d="m 318.59536,256.13366 c 0,-2.84048 23.89194,-46.75323 41.30533,-75.91811 20.74718,-34.74846 35.6025,-53.85494 51.17007,-65.81343 11.65726,-8.95472 26.87447,-17.269128 28.47973,-15.560805 0.47591,0.506477 6.63756,15.194495 13.69254,32.640035 12.66908,31.32807 12.77117,31.74934 8.27969,34.16605 -2.50116,1.34578 -8.09329,3.1 -12.42697,3.89825 -7.7065,1.41953 -8.14854,1.12421 -20.14525,-13.45846 l -12.26586,-14.90984 -8.07689,15.34927 c -11.61658,22.07606 -29.09292,43.92621 -57.87646,72.36123 -24.05992,23.76858 -32.13593,30.61567 -32.13593,27.24581 z"
       id="path1395"
       transform="scale(0.26458333)" />
    <path
       style="fill:#ff0000;stroke-width:2.14542"
       d="m 480.3185,217.65477 c 0.82263,-2.14375 -3.66632,-9.1156 -12.64354,-19.63684 l -13.91902,-16.31301 12.33672,-5.02559 c 6.7852,-2.76408 12.57809,-5.03007 12.87308,-5.03553 1.9015,-0.0352 -0.15918,-9.6931 -4.08252,-19.1337 -8.70878,-20.95565 -1.68682,-16.59905 23.49054,14.57412 13.22024,16.36855 24.03681,30.62864 24.03681,31.68909 0,1.70514 -38.86131,22.20529 -42.09367,22.20529 -0.70063,0 -0.69991,-1.49573 0.002,-3.32383 z"
       id="path1434"
       transform="scale(0.26458333)" />
    <path
       style="fill:#ff0000;stroke-width:2.14542"
       d="m 423.7211,287.66865 c -23.83586,-0.8448 -33.99784,-1.89112 -31.10864,-3.20309 2.35996,-1.07164 9.11805,-3.79037 15.01796,-6.04162 14.22738,-5.4288 31.78473,-15.268 45.45537,-25.47335 6.12072,-4.56922 17.5322,-10.71798 25.35882,-13.66392 7.82663,-2.94593 22.56518,-9.68323 32.75233,-14.97177 10.18715,-5.28854 18.75777,-9.37984 19.04582,-9.09179 0.28805,0.28805 2.10835,15.8072 4.04509,34.487 2.632,25.38548 2.90482,34.58027 1.08021,36.40629 -2.80189,2.80405 -55.61164,3.53828 -111.64696,1.55225 z"
       id="path1473"
       transform="scale(0.26458333)" />
    <path
       style="fill:#ff0000;stroke-width:2.14542"
       d="m 542.44133,337.41506 -8.93244,-0.81218 -1.4226,-11.14919 c -0.78243,-6.13205 -2.22078,-14.23065 -3.19632,-17.9969 -1.64718,-6.35925 -1.33657,-6.94373 4.35439,-8.19367 3.37045,-0.74028 8.64231,-3.32364 11.71525,-5.74082 5.18421,-4.0779 5.4831,-5.22765 4.14439,-15.94233 -1.30707,-10.46143 -1.05494,-11.54748 2.68075,-11.54748 3.72205,0 4.49188,3.18528 7.90724,32.7177 2.08105,17.99474 4.26354,34.40723 4.84996,36.4722 1.12881,3.97485 -0.60646,4.14701 -22.10062,2.19267 z"
       id="path1512"
       transform="scale(0.26458333)" />
    <path
       style="fill:#ff0000;stroke-width:2.14542"
       d="m 486.82306,382.99329 c -7.18331,-1.56298 -19.73404,-5.60552 -27.8905,-8.98344 -13.8319,-5.72833 -15.27086,-6.96944 -21.38156,-18.44175 -10.51642,-19.74364 -20.97711,-29.1399 -42.79312,-38.43872 -11.20417,-4.77564 -7.90497,-4.73319 27.95233,0.35971 36.37477,5.16639 64.64829,5.58144 75.3589,1.10627 4.23615,-1.76998 10.4805,-3.21814 13.87635,-3.21814 5.93585,0 6.17416,0.3935 6.17176,10.19076 -10e-4,5.60492 2.16309,20.60926 4.80994,33.34298 4.21755,20.29019 4.41676,23.40238 1.61157,25.17587 -4.44221,2.80845 -22.14091,2.29529 -37.71567,-1.09354 z"
       id="path1551"
       transform="scale(0.26458333)" />
    <path
       style="fill:#ff0000;stroke-width:2.14542"
       d="m 509.23594,430.57551 c -5.47607,-3.76993 -21.63199,-13.12978 -35.90203,-20.79967 -23.45075,-12.60434 -25.94878,-14.51255 -25.97935,-19.84516 -0.0186,-3.24495 0.42859,-5.89991 0.99373,-5.89991 0.56515,0 8.21664,2.41329 17.0033,5.36288 21.29405,7.14818 44.32665,10.15296 59.2044,7.72367 6.4899,-1.05969 11.99449,-1.74895 12.23242,-1.53169 1.4808,1.35216 -13.27142,42.05833 -15.20752,41.96251 -1.31365,-0.065 -6.86888,-3.2027 -12.34495,-6.97263 z"
       id="path1590"
       transform="scale(0.26458333)" />
    <path
       style="fill:#ff0000;stroke-width:0.536356"
       d="m 497.60934,489.26724 -3.88336,-3.59705 11.53125,-8.24563 11.53124,-8.24562 -7.64789,-3.59795 c -21.02572,-9.89154 -43.57804,-24.64775 -66.99911,-43.83818 -11.95083,-9.79211 -18.62414,-15.42472 -18.65784,-15.74815 -0.0169,-0.16219 1.86275,-1.21805 4.17698,-2.34637 3.93114,-1.91664 4.29248,-1.99845 5.49765,-1.24463 0.70947,0.44377 9.4962,5.09632 19.52605,10.33899 36.54804,19.10392 52.42194,28.42463 67.98381,39.9182 4.65713,3.43962 5.41376,3.82255 6.90564,3.49488 1.33086,-0.2923 1.5844,-0.2183 1.23275,0.35981 -0.76823,1.26293 -27.00767,36.39659 -27.16438,36.3721 -0.0822,-0.0128 -1.89695,-1.64202 -4.03279,-3.6204 z"
       id="path1629"
       transform="scale(0.26458333)" />
    <path
       style="fill:#ff0000;stroke-width:0.536356"
       d="m 432.0813,510.16551 c -7.39947,-4.96955 -17.8222,-20.60732 -43.49529,-65.25836 -23.18219,-40.31881 -42.19666,-71.72114 -54.83221,-90.55522 -1.74838,-2.60606 -3.07653,-4.84063 -2.95146,-4.9657 0.40556,-0.40556 14.49697,14.37006 19.22925,20.16293 10.93962,13.39137 20.45019,27.53265 32.64521,48.5402 2.73995,4.71993 5.04528,8.65695 5.12295,8.74894 0.11764,0.13933 19.88986,-9.13567 24.44821,-11.46847 1.35192,-0.69187 1.61413,-0.53334 7.72784,4.67231 24.58001,20.92918 50.49039,39.31774 69.04523,49.00129 1.69546,0.88484 3.02294,1.77074 2.94995,1.96866 -0.23703,0.6428 -56.32239,40.67136 -56.986,40.67136 -0.35393,0 -1.66059,-0.68308 -2.90368,-1.51794 z"
       id="path1668"
       transform="scale(0.26458333)" />
    <path
       style="fill:#ff0000;stroke-width:0.536356"
       d="m 391.80955,535.90301 c 8.9e-4,-0.19345 0.53606,-2.88601 1.18927,-5.98346 1.05342,-4.99525 1.1882,-7.23811 1.19251,-19.84517 0.005,-15.52815 -0.49793,-19.77405 -3.97591,-33.54531 -0.88156,-3.49062 -1.52631,-6.42312 -1.43277,-6.51666 0.0935,-0.0935 2.78389,4.35664 5.97855,9.88928 7.95802,13.78199 12.26431,20.51489 16.79315,26.25617 4.38107,5.55394 10.94125,11.89197 14.41728,13.92906 1.29632,0.75969 2.2857,1.44971 2.19863,1.53337 -0.50819,0.48826 -36.36205,14.57188 -36.36071,14.28272 z"
       id="path1707"
       transform="scale(0.26458333)" />
    <path
       style="fill:#ff0000;stroke-width:1.07271"
       d="m 313.35122,558.76854 c -17.63406,-1.08412 -32.27881,-2.18802 -32.54389,-2.4531 -1.82982,-1.82982 -6.84899,-63.10617 -5.29624,-64.65893 0.89999,-0.89999 27.79801,-5.80765 28.42026,-5.1854 0.29752,0.29752 -0.8055,4.76453 -2.45116,9.92669 -1.80205,5.65272 -3.20511,12.87321 -3.52765,18.15412 -0.50909,8.33519 -0.39903,8.90491 2.22772,11.53165 1.84799,1.848 3.93417,2.76474 6.29833,2.76771 3.86628,0.005 41.67247,4.99431 42.06366,5.55132 0.13293,0.18928 1.46394,6.25747 2.9578,13.48487 l 2.71611,13.14071 -4.40151,-0.14424 c -2.42083,-0.0793 -18.82937,-1.03127 -36.46343,-2.1154 z"
       id="path1746"
       transform="scale(0.26458333)" />
    <path
       style="fill:#ff0000;stroke-width:1.07271"
       d="m 219.6179,537.1836 c -14.31818,-6.53007 -25.85346,-12.05245 -25.63397,-12.27195 0.43267,-0.43267 29.02246,-3.07342 43.35352,-4.00443 l 8.84987,-0.57492 v 14.44803 c 0,7.94641 -0.12068,14.40935 -0.26818,14.36209 -0.1475,-0.0473 -11.98305,-5.42874 -26.30124,-11.95882 z"
       id="path1785"
       transform="scale(0.26458333)" />
    <path
       style="fill:#ff0000;stroke-width:1.07271"
       d="m 117.04388,500.00201 -25.610005,-25.62669 6.748543,-10.04097 c 6.655362,-9.90232 16.770802,-23.44851 21.620672,-28.9535 2.07578,-2.35618 17.56417,-11.65975 19.41091,-11.65975 0.31354,0 2.06844,2.65496 3.89977,5.89991 1.83134,3.24495 3.74669,5.89991 4.25633,5.89991 2.14495,0 17.38299,-5.45633 25.23304,-9.03527 4.66304,-2.12595 8.6728,-3.67081 8.91057,-3.43303 0.23778,0.23777 -1.51964,3.62146 -3.90538,7.51929 -14.36667,23.47236 -22.91863,47.77066 -24.3258,69.11574 -0.62056,9.41324 -1.08159,11.11564 -4.91892,18.16389 -2.32879,4.27744 -4.56617,7.77716 -4.97195,7.77716 -0.40578,0 -12.26228,-11.53201 -26.34778,-25.62669 z"
       id="path1824"
       transform="scale(0.26458333)" />
    <path
       style="fill:#ff0000;stroke-width:1.07271"
       d="m 61.146145,455.72385 c -5.75421,-15.35133 -23.064882,-63.5655 -23.064882,-64.24097 0,-2.32256 42.91316,-24.6155 47.384007,-24.6155 12.102588,0 47.09741,-10.33509 76.31773,-22.53907 8.74182,-3.65105 16.09881,-6.43369 16.34887,-6.18363 1.26144,1.26145 -45.59916,26.20373 -61.52246,32.74628 l -5.67971,2.33367 1.61634,3.12567 c 0.889,1.71912 5.73779,10.22632 10.7751,18.90489 5.03731,8.67857 9.15875,16.1135 9.15875,16.52207 0,0.40856 -7.56957,5.07327 -16.82127,10.36601 -17.090977,9.77746 -42.646668,26.0635 -49.954324,31.83471 -2.930873,2.31465 -4.167421,2.78828 -4.558151,1.74587 z"
       id="path1863"
       transform="scale(0.26458333)" />
    <path
       style="fill:#ff0000;stroke-width:1.07271"
       d="m 33.254061,292.98316 c -2.853285,-0.60249 -3.252491,-1.16541 -3.52117,-4.96523 -0.802877,-11.35476 -3.091938,-68.70339 -2.757961,-69.09613 0.209409,-0.24625 6.052362,0.8361 12.984341,2.40522 15.275879,3.45785 25.826587,5.23471 51.608637,8.6915 10.832922,1.45245 19.832712,2.78829 19.999532,2.96854 0.42295,0.457 16.6216,50.79942 16.6216,51.65686 0,0.38356 -6.4153,0.69737 -14.25623,0.69737 -16.841359,0 -23.702355,-1.49304 -34.781532,-7.56893 -7.562669,-4.14742 -15.766167,-6.5772 -26.613759,-7.88267 l -5.388911,-0.64854 -3.069652,11.80456 c -1.68831,6.49251 -3.447622,11.80457 -3.909584,11.80457 -0.461961,0 -1.482809,0.18279 -2.268553,0.4062 -0.785743,0.22342 -2.876784,0.10042 -4.646758,-0.27332 z"
       id="path1902"
       transform="scale(0.26458333)" />
    <path
       style="fill:#ff0000;stroke-width:1.07271"
       d="m 180.1524,218.31229 c -1.14524,-0.87648 -6.66811,-3.11317 -12.27303,-4.97042 -18.87495,-6.25444 -38.47761,-5.37308 -54.35616,2.4439 -6.35376,3.12795 -7.22639,3.28149 -14.550916,2.56026 -6.70269,-0.66 -9.243625,-1.58199 -18.178486,-6.59615 -5.712674,-3.20591 -15.480671,-9.18625 -21.70666,-13.28966 -10.378019,-6.83992 -11.240257,-7.66395 -10.361932,-9.90275 2.919686,-7.44211 21.59624,-51.6668 21.982605,-52.05316 1.647026,-1.64703 36.807019,19.73597 54.624539,33.22061 16.00898,12.1159 58.63769,48.29663 58.63769,49.76821 0,0.90035 -1.84322,0.33022 -3.81765,-1.18084 z"
       id="path1941"
       transform="scale(0.26458333)" />
    <path
       style="fill:#ff0000;stroke-width:1.07271"
       d="m 238.03953,213.17339 c -5.95626,-9.57194 -22.26752,-36.90011 -36.24724,-60.7293 -28.68816,-48.90052 -35.72884,-59.68442 -44.19461,-67.69099 -3.26168,-3.084765 -5.78235,-5.751987 -5.60148,-5.927159 0.18087,-0.175172 4.43197,-2.020676 9.4469,-4.101119 5.01493,-2.080443 10.86345,-4.518335 12.99673,-5.417538 3.71417,-1.565573 3.97741,-1.529814 6.20665,0.843101 l 2.32797,2.478017 -5.97628,4.512142 -5.97629,4.512142 3.52412,6.423019 c 4.23429,7.71735 11.1044,15.777575 17.81593,20.902215 13.44191,10.26366 27.08235,37.59511 49.69676,99.57779 4.07251,11.16214 7.27089,20.68324 7.10749,21.15799 -0.16339,0.47476 -5.17039,-6.96839 -11.12665,-16.54031 z"
       id="path1980"
       transform="scale(0.26458333)" />
    <path
       style="fill:#ff0000;stroke-width:1.07271"
       d="m 238.6821,248.82855 c -7.2011,-5.99559 -24.99151,-21.31793 -39.53423,-34.04966 -52.44127,-45.91076 -74.32739,-62.77051 -102.603823,-79.03978 -5.899914,-3.39461 -10.878753,-6.3119 -11.064087,-6.48287 -0.185334,-0.17097 12.526341,-9.56117 28.24817,-20.86711 28.40017,-20.423241 28.60249,-20.544882 31.2672,-18.798895 7.59412,4.975855 16.67222,18.642655 43.45724,65.423515 23.97585,41.87455 37.37673,63.91895 53.08514,87.32481 6.1026,9.09301 10.90252,16.72587 10.66648,16.96191 -0.23604,0.23604 -6.32097,-4.47632 -13.52209,-10.47192 z"
       id="path2019"
       transform="scale(0.26458333)" />
    <path
       style="fill:#ff0000;stroke-width:1.07271"
       d="m 454.82973,309.9876 c -19.25104,-1.67134 -69.52326,-9.60414 -71.1457,-11.22657 -0.91465,-0.91466 15.69984,-0.58663 53.98232,1.06581 20.0597,0.86586 44.43708,1.60478 54.17193,1.64204 l 17.69975,0.0677 -9.11805,3.23156 c -5.01493,1.77736 -10.80757,3.66893 -12.87254,4.2035 -6.00603,1.55481 -21.10891,2.02376 -32.71771,1.01591 z"
       id="path2058"
       transform="scale(0.26458333)" />
    <path
       style="fill:#ff0000;stroke-width:1.07271"
       d="m 27.354147,356.00431 c 0,-0.27144 -0.965441,-9.86467 -2.145424,-21.31828 -1.179982,-11.45361 -2.145423,-21.65054 -2.145423,-22.65984 0,-1.18915 1.604735,-2.40646 4.559025,-3.45836 6.027697,-2.1462 13.677073,-3.16303 13.677073,-1.81809 0,1.4248 -12.968117,48.73718 -13.513224,49.30113 -0.237615,0.24583 -0.432027,0.22488 -0.432027,-0.0466 z"
       id="path2097"
       transform="scale(0.26458333)" />
    <path
       style="fill:#ff0000;stroke-width:1.07271"
       d="m 29.116029,374.219 c -1.165579,-11.15165 -1.064678,-11.76632 1.72443,-10.50479 1.327481,0.60043 6.758084,1.95577 12.068006,3.01187 l 9.654405,1.92018 -6.932943,3.53219 c -3.813117,1.94271 -8.751407,4.68014 -10.973977,6.08319 -2.222569,1.40304 -4.223221,2.55099 -4.445893,2.55099 -0.222672,0 -0.714984,-2.96713 -1.094028,-6.59363 z"
       id="path2136"
       transform="scale(0.26458333)" />
    <path
       style="fill:#ff0000;stroke-width:1.07271"
       d="m 246.97483,495.69616 c -1.70675,-21.86202 -0.50041,-41.12231 3.50028,-55.88516 1.19903,-4.42451 5.07312,-19.14713 8.6091,-32.71693 10.57067,-40.56639 11.42922,-38.06648 2.68016,7.80406 -7.82072,41.00338 -11.88908,67.00427 -13.71729,87.66727 -0.15661,1.76998 -0.63912,-1.32118 -1.07225,-6.86924 z"
       id="path2214"
       transform="scale(0.26458333)" />
    <path
       style="fill:#ff0000;stroke-width:1.07271"
       d="m 48.808379,353.82066 c -3.244952,-0.61806 -6.056642,-1.27003 -6.248199,-1.44882 -0.191557,-0.17879 3.308165,-13.82838 7.777159,-30.33243 4.468995,-16.50405 8.125445,-30.26079 8.125445,-30.57053 0,-0.30975 -1.020401,-0.29633 -2.267557,0.0298 -1.969557,0.51505 -2.169833,0.25514 -1.523951,-1.97768 0.408983,-1.41385 0.961826,-3.36069 1.228539,-4.3263 0.709912,-2.57015 7.242601,-0.91929 19.726355,4.98502 6.114941,2.89212 13.623029,5.47722 18.772454,6.46352 14.307886,2.74049 46.159676,3.69768 82.598796,2.48222 41.19612,-1.37414 55.60485,-1.41698 57.82962,-0.17194 1.39224,0.77914 0.94454,1.24725 -2.30589,2.41107 -2.21847,0.79431 -18.55415,7.6217 -36.30151,15.17196 -54.29076,23.09692 -71.76271,29.55677 -94.31203,34.86975 -9.572959,2.25554 -15.140143,2.85174 -29.499575,3.15916 -9.734858,0.20841 -20.354703,-0.12675 -23.599656,-0.74481 z"
       id="path2253"
       transform="scale(0.26458333)" />
    <path
       style="fill:#ff0000;stroke-width:1.07271"
       d="m 165.73395,504.99386 c 0,-8.7523 2.74247,-22.89517 6.52844,-33.66709 8.87891,-25.26244 29.69016,-58.76586 43.80883,-70.52656 13.89572,-11.57499 29.43895,-28.62654 39.66133,-43.51007 3.01,-4.38249 5.4665,-7.52017 5.45889,-6.97262 -0.008,0.54755 -1.00303,4.13322 -2.21205,7.96817 -4.43569,14.06977 -22.41415,85.58585 -24.00059,95.47133 -1.98637,12.37758 -2.2555,21.87816 -1.1428,40.34153 l 0.84735,14.0601 -3.09789,0.73954 c -1.70383,0.40674 -17.21745,1.02259 -34.4747,1.36856 l -31.37681,0.62903 z"
       id="path2292"
       transform="scale(0.26458333)" />
    <path
       style="fill:#ff0000;stroke-width:1.07271"
       d="m 343.26772,520.93844 -32.18135,-4.46629 0.37571,-5.73323 c 0.20663,-3.15328 1.53411,-9.04888 2.94995,-13.10132 1.41584,-4.05245 2.57426,-8.11319 2.57426,-9.02385 0,-2.05911 2.74911,-3.11183 12.33618,-4.72394 12.25745,-2.06114 11.69636,-1.00148 6.46395,-12.20758 -9.7899,-20.96675 -21.62335,-58.18284 -24.8004,-77.99706 -0.89871,-5.60492 -3.79318,-21.96206 -6.43216,-36.34921 -2.63898,-14.38715 -4.59833,-26.35826 -4.35411,-26.60248 0.24422,-0.24422 2.6688,3.67064 5.38796,8.69969 2.71916,5.02906 13.24692,23.03418 23.39501,40.01138 31.25633,52.29012 46.47572,85.01984 50.76691,109.1756 1.54125,8.67593 2.11434,30.15037 0.92324,34.59495 -0.80311,2.99679 1.68195,3.14804 -37.40515,-2.27666 z"
       id="path2409"
       transform="scale(0.26458333)" />
    <path
       style="fill:#008000;stroke-width:1.07271"
       d="m 275.56998,474.55687 c 0.37908,-2.29505 0.9404,-19.86123 1.24738,-39.03595 0.38422,-23.9987 1.06569,-37.79766 2.18677,-44.27984 1.48106,-8.56354 1.4664,-10.50734 -0.1618,-21.45423 -2.46522,-16.57436 -1.0265,-51.06166 1.93055,-46.27705 0.95007,1.53725 8.42279,29.94516 13.66265,51.93927 9.33758,39.19411 17.4309,66.3965 25.3194,85.10086 1.99865,4.73899 3.50742,8.74283 3.35282,8.89744 -0.15461,0.1546 -9.92211,2.03192 -21.70556,4.17183 -11.78345,2.13991 -22.57127,4.16518 -23.97294,4.5006 -2.43049,0.58164 -2.51658,0.41666 -1.85927,-3.56293 z"
       id="path2485"
       transform="scale(0.26458333)" />
    <path
       style="fill:#008000;stroke-width:1.07271"
       d="m 141.06158,400.96267 c -6.19491,-10.78753 -11.26347,-20.16542 -11.26347,-20.83977 0,-0.67435 9.41304,-6.01021 20.91787,-11.85748 21.27314,-10.81194 36.11689,-19.53453 82.06244,-48.22209 14.1598,-8.84112 28.52073,-17.64636 31.91318,-19.56721 l 6.16809,-3.49245 v 3.12893 c 0,6.72005 -5.98106,20.32983 -15.4296,35.10979 -22.06247,34.51137 -59.5067,68.14046 -89.97949,80.81159 -13.93744,5.79543 -11.56353,7.26241 -24.38902,-15.07131 z"
       id="path2524"
       transform="scale(0.26458333)" />
    <path
       style="fill:#008000;stroke-width:1.07271"
       d="m 383.43542,398.24419 c -22.90121,-38.32993 -49.90077,-67.80607 -78.22121,-85.39615 -4.40968,-2.73889 -7.56378,-4.9798 -7.00912,-4.9798 0.55466,0 5.61074,0.95094 11.23573,2.11321 5.62498,1.16227 20.33399,3.86609 32.68668,6.0085 39.68616,6.88303 56.46325,13.05145 70.27309,25.83724 9.06872,8.39626 13.93934,16.13498 18.15944,28.85283 5.55032,16.72667 7.34088,14.16422 -18.43021,26.3753 -12.2751,5.81631 -22.49117,10.5751 -22.70237,10.5751 -0.21119,0 -2.90761,-4.2238 -5.99203,-9.38623 z"
       id="path2563"
       transform="scale(0.26458333)" />
    <path
       style="fill:#008000;stroke-width:1.07271"
       d="m 302.17324,287.72088 c -1.02669,-0.71315 2.14535,-3.82343 11.79982,-11.5701 45.81676,-36.76296 85.42844,-79.41242 102.76078,-110.64139 1.37835,-2.48347 2.89014,-4.27804 3.35954,-3.98794 0.4694,0.29011 8.6959,9.8042 18.28111,21.14243 9.58521,11.33824 19.80591,23.37955 22.71267,26.75848 5.04843,5.86848 5.21178,6.25526 3.64919,8.64007 -6.54303,9.98595 -24.03958,24.49469 -42.75278,35.45211 -30.79868,18.03401 -77.84479,33.17869 -107.63802,34.64993 -5.92249,0.29245 -11.40003,0.0928 -12.17231,-0.44359 z"
       id="path2602"
       transform="scale(0.26458333)" />
    <path
       style="fill:#008000;stroke-width:1.07271"
       d="m 278.52852,262.00982 c -5.50807,-39.38674 -5.94507,-44.61489 -5.89535,-70.53079 0.0507,-26.42087 1.58526,-38.97147 7.08273,-57.92643 l 2.48894,-8.58169 22.45838,-0.29068 c 12.35212,-0.15987 23.02876,-0.0718 23.72588,0.19571 0.89977,0.34527 0.34556,3.3861 -1.91033,10.48143 -1.7478,5.49728 -9.13768,33.40699 -16.42197,62.02157 -7.28428,28.61458 -14.78827,56.85372 -16.67553,62.75363 -4.12472,12.89465 -9.54668,26.28144 -10.64459,26.28144 -0.43743,0 -2.3311,-10.98189 -4.20816,-24.40419 z"
       id="path2641"
       transform="scale(0.26458333)" />
    <path
       style="fill:#ff0000;stroke-width:1.07271"
       d="m 208.10606,279.94536 c -15.33978,-2.28585 -34.64859,-4.68972 -42.90847,-5.34193 -8.25988,-0.65221 -17.89402,-1.52 -21.4092,-1.92843 l -6.39125,-0.7426 -7.22443,-22.46054 c -3.97344,-12.3533 -7.00503,-22.81556 -6.73686,-23.24946 1.30574,-2.11273 12.308,-4.55998 20.30751,-4.51703 19.196,0.10306 32.42184,6.19959 73.79627,34.01682 16.16522,10.86835 32.12033,21.30079 35.45577,23.1832 3.33545,1.88241 6.06446,3.85921 6.06446,4.39288 0,2.26394 -23.74698,0.70132 -50.9538,-3.35291 z"
       id="path2680"
       transform="scale(0.26458333)" />
    <path
       style="fill:#ff0000;stroke-width:0.536356"
       d="m 540.20513,383.49441 c -0.32574,-1.44135 -2.50842,-17.66141 -2.50842,-18.64069 0,-0.32436 1.80087,0.41353 4.00195,1.63975 4.63695,2.58326 4.5268,1.3853 1.07006,11.63738 -1.74846,5.18566 -2.32921,6.40069 -2.56359,5.36356 z"
       id="path2794"
       transform="scale(0.26458333)" />
    <path
       style="fill:#ff0000;stroke-width:0.0948152"
       d="m 521.48365,438.0331 c -0.73008,-0.51954 -1.86452,-1.21663 -2.52099,-1.5491 -2.42484,-1.22807 -5.1448,-2.87549 -8.99906,-5.45055 -7.6974,-5.14268 -19.99641,-12.27042 -37.87867,-21.95214 -8.89326,-4.81493 -12.09232,-6.60287 -15.69192,-8.77013 -1.01689,-0.61225 -3.40624,-1.93414 -5.30965,-2.93754 -1.90342,-1.00339 -3.73513,-1.97564 -4.07048,-2.16054 l -0.60972,-0.33619 0.94158,-0.47078 c 0.51786,-0.25894 0.95298,-0.48084 0.96692,-0.49311 0.0139,-0.0123 -0.10196,-0.29536 -0.25755,-0.62908 -0.55033,-1.18037 -0.62141,-1.63161 -0.61836,-3.92528 0.002,-1.14727 0.055,-2.44861 0.11871,-2.89187 0.0971,-0.67471 0.093,-0.91399 -0.0248,-1.46963 -0.22625,-1.06674 -0.28307,-0.99556 0.79478,-0.99556 0.89723,0 0.98234,0.0185 1.92001,0.41655 0.53964,0.22911 1.62116,0.61692 2.40339,0.8618 2.32364,0.72745 7.29769,2.34032 11.8519,3.84307 8.91649,2.94217 15.57075,4.70721 23.37195,6.19941 8.91833,1.70587 16.08594,2.48388 23.84602,2.58836 5.66553,0.0763 8.76676,-0.12984 13.72264,-0.91207 5.11667,-0.8076 9.86058,-1.42947 10.90561,-1.42961 0.24771,-3e-5 0.45038,0.0426 0.45038,0.0948 0,0.0522 0.0747,0.0955 0.16592,0.0963 0.10327,9.5e-4 0.12616,0.0278 0.0606,0.0711 -0.0579,0.0383 -0.15729,0.43232 -0.22082,0.87558 -0.46989,3.27877 -3.73601,13.43638 -7.80473,24.2727 -0.84327,2.24591 -2.19618,6.20778 -3.67299,10.75602 -1.28589,3.96025 -2.37741,7.20983 -2.42561,7.2213 -0.0482,0.0115 -0.68496,-0.40422 -1.41504,-0.92375 z"
       id="path2833"
       transform="scale(0.26458333)" />
    <path
       style="fill:#ff0000;stroke-width:0.0948152"
       d="m 532.6695,451.27299 c 0.36063,-0.93716 0.76848,-2.14021 1.09755,-3.23747 0.21669,-0.72251 0.42158,-1.34261 0.45532,-1.378 0.10262,-0.10765 1.26648,0.87114 1.21021,1.01777 -0.0507,0.13198 -2.56109,3.51454 -2.74048,3.69251 -0.0641,0.0636 -0.0716,0.0324 -0.0226,-0.0948 z"
       id="path2872"
       transform="scale(0.26458333)" />
    <path
       style="fill:#ff0000;stroke-width:0.0167611"
       d="m 528.87206,456.43796 c 4e-5,-0.004 0.0187,-0.0528 0.0415,-0.10811 0.0937,-0.22739 0.0191,-0.34333 -0.22122,-0.34378 l -0.0969,-1.8e-4 0.20951,-0.10579 c 0.30972,-0.15638 0.57793,-0.33059 0.86739,-0.56341 0.0484,-0.0389 0.088,-0.0662 0.088,-0.0607 0,0.009 -0.8376,1.13389 -0.87382,1.17361 -0.008,0.009 -0.0145,0.0125 -0.0144,0.008 z"
       id="path3096"
       transform="scale(0.26458333)" />
    <path
       style="fill:#ff0000;stroke-width:0.00390625"
       d="m 528.87711,456.43229 c -9e-5,-0.002 0.0121,-0.0346 0.0272,-0.0728 0.0561,-0.14279 0.0636,-0.20996 0.0311,-0.27626 -0.034,-0.0694 -0.11333,-0.0987 -0.26733,-0.0989 l -0.0626,-8e-5 0.13678,-0.0696 c 0.17001,-0.0865 0.25282,-0.13161 0.36517,-0.19892 0.18546,-0.1111 0.34749,-0.22402 0.5459,-0.38046 0.0718,-0.0566 0.097,-0.0743 0.0942,-0.0663 -0.003,0.0102 -0.27745,0.38044 -0.59739,0.80722 -0.24221,0.3231 -0.27274,0.36291 -0.27307,0.35612 z"
       id="path3135"
       transform="scale(0.26458333)" />
    <path
       style="fill:#ff0000;stroke-width:0.00390625"
       d="m 528.6543,456.74849 c 0,-0.002 0.019,-0.0307 0.0423,-0.0643 0.094,-0.13582 0.13007,-0.19338 0.17512,-0.27988 0.0157,-0.0301 0.0285,-0.0528 0.0286,-0.0506 4e-5,0.002 -0.006,0.019 -0.0131,0.0371 -0.0188,0.0469 -0.0197,0.0506 -0.0127,0.0506 0.003,0 0.0177,-0.015 0.032,-0.0334 0.0143,-0.0184 0.0269,-0.0326 0.0278,-0.0316 0.002,0.002 -0.26139,0.35536 -0.27469,0.36953 -0.003,0.003 -0.005,0.004 -0.005,0.003 z"
       id="path3174"
       transform="scale(0.26458333)" />
    <path
       style="fill:#ff0000;stroke-width:0.00390625"
       d="m 529.44727,455.68995 c 0,-0.002 0.0419,-0.0597 0.0932,-0.12877 0.16609,-0.22401 0.2241,-0.30504 0.2195,-0.30657 -0.006,-0.002 -0.0371,0.019 -0.0942,0.0644 -0.0877,0.0698 -0.11723,0.0921 -0.11921,0.0901 -10e-4,-10e-4 0.0135,-0.0139 0.0324,-0.0286 0.0508,-0.0394 0.14795,-0.11923 0.21014,-0.17265 0.0301,-0.0258 0.0553,-0.0464 0.056,-0.0457 10e-4,0.001 -0.3819,0.51408 -0.39238,0.52524 -0.003,0.003 -0.005,0.004 -0.005,0.003 z"
       id="path3213"
       transform="scale(0.26458333)" />
    <path
       style="fill:#ff0000;stroke-width:0.00390625"
       d=""
       id="path3252"
       transform="scale(0.26458333)" />
    <path
       style="fill:#ff0000;stroke-width:0.00390625"
       d="m 528.62026,455.98539 c 0.0124,-7.8e-4 0.0318,-7.7e-4 0.043,2e-5 0.0112,7.8e-4 10e-4,10e-4 -0.0226,10e-4 -0.0236,-10e-6 -0.0328,-6.5e-4 -0.0204,-10e-4 z"
       id="path3291"
       transform="scale(0.26458333)" />
    <path
       style="fill:#ff0000;stroke-width:0.00390625"
       d=""
       id="path3330"
       transform="scale(0.26458333)" />
    <path
       style="fill:#ff0000;stroke-width:0.00390625"
       d=""
       id="path3369"
       transform="scale(0.26458333)" />
    <path
       style="fill:#ff0000;stroke-width:0.00390625"
       d="m 535.39648,447.74128 c 0,-0.001 0.009,-0.0163 0.0195,-0.0331 0.0151,-0.0236 0.0195,-0.034 0.0195,-0.0461 0,-0.0434 -0.0662,-0.13585 -0.18525,-0.25879 -0.0296,-0.0306 -0.0528,-0.0557 -0.0514,-0.0557 0.002,0 0.30248,0.22925 0.3122,0.2383 0.002,0.002 -0.0208,0.0353 -0.0503,0.0748 -0.0545,0.0729 -0.0643,0.0851 -0.0643,0.0806 z"
       id="path3408"
       transform="scale(0.26458333)" />
    <path
       style="fill:#ff0000;stroke-width:0.00390625"
       d="m 534.2052,446.67845 c -7e-5,-0.002 0.005,-0.0206 0.0103,-0.0419 0.007,-0.0264 0.0118,-0.0377 0.0147,-0.0354 0.002,0.002 0.0197,0.0152 0.0386,0.0297 0.0189,0.0145 0.0337,0.0271 0.0328,0.0279 -8.6e-4,8.5e-4 -0.009,-10e-4 -0.0183,-0.004 -0.009,-0.003 -0.025,-0.006 -0.0351,-0.006 -0.0188,0 -0.0279,0.006 -0.0386,0.0254 -0.002,0.004 -0.004,0.006 -0.004,0.005 z"
       id="path3447"
       transform="scale(0.26458333)" />
    <path
       style="fill:#ff0000;stroke-width:0.03125"
       d="m 524.19072,384.30347 c 0.45542,-0.24289 0.77196,-0.46968 1.0778,-0.77222 0.51088,-0.50537 0.7933,-1.04801 0.97648,-1.87624 0.14155,-0.63998 0.16132,-0.90414 0.16016,-2.13939 -6e-4,-0.63593 0.003,-1.13515 0.008,-1.10937 0.0429,0.22744 0.37005,2.42917 0.55715,3.75 0.12781,0.90234 0.23875,1.67695 0.24653,1.72136 l 0.0141,0.0807 -0.78724,0.12998 c -0.83284,0.1375 -2.10858,0.33126 -2.39662,0.36399 l -0.17187,0.0195 z"
       id="path3486"
       transform="scale(0.26458333)" />
    <path
       style="fill:#ff0000;stroke-width:0.0220971"
       d="m 538.62754,364.98541 c -0.2461,-0.0999 -0.62333,-0.20594 -0.75281,-0.21157 l -0.10295,-0.004 -0.0218,-0.16658 c -0.012,-0.0916 -0.0195,-0.16955 -0.0167,-0.17319 0.005,-0.006 1.11405,0.60575 1.13453,0.62623 0.0271,0.0271 -0.0705,-0.001 -0.24028,-0.0704 z"
       id="path3525"
       transform="scale(0.26458333)" />
    <path
       style="fill:#ff0000;stroke-width:0.0220971"
       d="m 545.28154,369.64633 c -0.003,-0.43449 -0.0986,-0.77991 -0.29067,-1.0541 -0.0475,-0.0678 -0.0806,-0.12331 -0.0735,-0.12331 0.0304,0 0.67564,0.38471 0.68466,0.40824 0.007,0.0192 -0.1987,0.69359 -0.31073,1.01703 -0.004,0.0122 -0.009,-0.0994 -0.01,-0.24786 z"
       id="path3564"
       transform="scale(0.26458333)" />
    <path
       style="fill:#ff0000;stroke-width:0.0078125"
       d="m 540.49029,384.67773 c -0.005,-0.0226 -0.0567,-0.24259 -0.1149,-0.48897 -0.0582,-0.24638 -0.1057,-0.4538 -0.10551,-0.46094 1.9e-4,-0.007 0.007,-1.8e-4 0.0154,0.0155 0.008,0.0156 0.0263,0.0397 0.04,0.0534 0.16064,0.16064 0.39742,-0.16139 0.78373,-1.06591 0.057,-0.13338 0.11344,-0.26802 0.1255,-0.2992 0.0121,-0.0312 0.0234,-0.0553 0.0251,-0.0535 0.004,0.004 -0.75048,2.34048 -0.75599,2.3406 -0.002,6e-5 -0.008,-0.0184 -0.0133,-0.0409 z"
       id="path3603"
       transform="scale(0.26458333)" />
  </g>
</svg>
